<svg xmlns="http://www.w3.org/2000/svg" width="18.368" height="13.921" viewBox="0 0 18.368 13.921">
  <g id="图层_2" data-name="图层 2" transform="translate(0)">
    <g id="Discord_Logos" data-name="Discord Logos" transform="translate(0)">
      <g id="Discord_Logo_-_Large_-_White" data-name="Discord Logo - Large - White">
        <path id="Caminho_67" data-name="Caminho 67" d="M15.559,1.166A15.191,15.191,0,0,0,11.77,0a10.41,10.41,0,0,0-.485.987,14.112,14.112,0,0,0-4.205,0A10.455,10.455,0,0,0,6.594,0,15.3,15.3,0,0,0,2.8,1.169,15.31,15.31,0,0,0,.078,11.588h0a15.275,15.275,0,0,0,4.648,2.333,11.225,11.225,0,0,0,1-1.605,9.884,9.884,0,0,1-1.567-.748c.131-.1.26-.194.384-.289a10.917,10.917,0,0,0,9.292,0c.126.1.254.2.384.289a9.922,9.922,0,0,1-1.57.75,11.124,11.124,0,0,0,1,1.6,15.205,15.205,0,0,0,4.65-2.332h0A15.3,15.3,0,0,0,15.559,1.166ZM6.133,9.49A1.757,1.757,0,0,1,4.479,7.657,1.746,1.746,0,0,1,6.13,5.816,1.739,1.739,0,0,1,7.785,7.657,1.754,1.754,0,0,1,6.133,9.49Zm6.1,0a1.754,1.754,0,0,1-1.653-1.833,1.746,1.746,0,0,1,1.653-1.841,1.735,1.735,0,0,1,1.651,1.841A1.753,1.753,0,0,1,12.235,9.49Z" transform="translate(0)" fill="#fff"/>
      </g>
    </g>
  </g>
</svg>
